/home/minht/3dpredictsim_tutorial/predsim_tutorial/Results/Case_16/GRF.mot
version=1
nRows=17
nColumns=19
inDegrees=yes
endheader 
time	r_ground_force_vx	r_ground_force_vy	r_ground_force_vz	r_ground_force_px	r_ground_force_py	r_ground_force_pz	l_ground_force_vx	l_ground_force_vy	l_ground_force_vz	l_ground_force_px	l_ground_force_py	l_ground_force_pz	r_ground_torque_x	r_ground_torque_y	r_ground_torque_z	l_ground_torque_x	l_ground_torque_y	l_ground_torque_z	
          0.55065634	         10.47730535	        914.43942935	         19.50087264	          0.00010146	          0.00000000	          0.00001770	          0.00000000	          0.00000000	          0.00000000	          0.00000000	          0.00000000	          0.00000000	          0.00000000	         -0.03264347	          0.00000000	          0.00000000	          0.00000000	          0.00000000	
          0.56734290	         13.79944175	        912.69476536	         18.69894359	          0.00004228	          0.00000000	          0.00000704	          0.00000000	          0.00000000	          0.00000000	          0.00000000	          0.00000000	          0.00000000	          0.00000000	         -0.01354949	          0.00000000	          0.00000000	          0.00000000	          0.00000000	
          0.58402945	         17.57892273	        909.15257915	         17.88000640	          0.00001845	          0.00000000	          0.00000331	          0.00000000	          0.00000000	          0.00000000	          0.00000000	          0.00000000	          0.00000000	          0.00000000	         -0.00627703	          0.00000000	          0.00000000	          0.00000000	          0.00000000	
          0.60071601	         21.49717068	        903.91061249	         17.20060648	          0.00003114	          0.00000000	          0.00000635	          0.00000000	          0.00000000	          0.00000000	          0.00000000	          0.00000000	          0.00000000	          0.00000000	         -0.01109748	          0.00000000	          0.00000000	          0.00000000	          0.00000000	
          0.61740256	         25.43619357	        897.60539617	         16.54529637	          0.00011936	          0.00000000	          0.00002238	          0.00000000	          0.00000000	          0.00000000	          0.00000000	          0.00000000	          0.00000000	          0.00000000	         -0.03876720	          0.00000000	          0.00000000	          0.00000000	          0.00000000	
          0.63408912	         29.40945499	        890.71023863	         15.92954076	          0.00036305	          0.00000000	          0.00006131	          0.00000000	          0.00000000	          0.00000000	          0.00000000	          0.00000000	          0.00000000	          0.00000000	         -0.10815874	          0.00000000	          0.00000000	          0.00000000	          0.00000000	
          0.65077568	         33.46489704	        883.70768111	         15.43281060	          0.00076661	          0.00000000	          0.00011756	          0.00000000	          0.00000000	          0.00000000	          0.00000000	          0.00000000	          0.00000000	          0.00000000	         -0.21301400	          0.00000000	          0.00000000	          0.00000000	          0.00000000	
          0.66746223	         37.68147036	        877.29316320	         14.97678635	          0.00119809	          0.00000000	          0.00016781	          0.00000000	          0.00000000	          0.00000000	          0.00000000	          0.00000000	          0.00000000	          0.00000000	         -0.31456255	          0.00000000	          0.00000000	          0.00000000	          0.00000000	
          0.68414879	         42.15945268	        871.19517532	         14.77408782	          0.00153865	          0.00000000	          0.00019761	          0.00000000	          0.00000000	          0.00000000	          0.00000000	          0.00000000	          0.00000000	          0.00000000	         -0.38570685	          0.00000000	          0.00000000	          0.00000000	          0.00000000	
          0.70083534	         47.41698959	        866.33518263	         14.61803704	          0.00178170	          0.00000000	          0.00021039	          0.00000000	          0.00000000	          0.00000000	          0.00000000	          0.00000000	          0.00000000	          0.00000000	         -0.43224692	          0.00000000	          0.00000000	          0.00000000	          0.00000000	
          0.71752190	         53.45251207	        864.60844279	         14.78442615	          0.00199648	          0.00000000	          0.00021712	          0.00000000	          0.00000000	          0.00000000	          0.00000000	          0.00000000	          0.00000000	          0.00000000	         -0.47663716	          0.00000000	          0.00000000	          0.00000000	          0.00000000	
          0.73420845	         59.88161058	        866.45945878	         15.25463079	          0.00227788	          0.00000000	          0.00022834	          0.00000000	          0.00000000	          0.00000000	          0.00000000	          0.00000000	          0.00000000	          0.00000000	         -0.54404801	          0.00000000	          0.00000000	          0.00000000	          0.00000000	
          0.75089501	         66.37152225	        871.51335073	         15.96818971	          0.00274859	          0.00000000	          0.00025406	          0.00000000	          0.00000000	          0.00000000	          0.00000000	          0.00000000	          0.00000000	          0.00000000	         -0.66658745	          0.00000000	          0.00000000	          0.00000000	          0.00000000	
          0.76758157	         72.43326784	        878.14757026	         16.96871497	          0.00360607	          0.00000000	          0.00030745	          0.00000000	          0.00000000	          0.00000000	          0.00000000	          0.00000000	          0.00000000	          0.00000000	         -0.90040040	          0.00000000	          0.00000000	          0.00000000	          0.00000000	
          0.78426812	         77.38860742	        882.74392226	         18.81861974	          0.00527990	          0.00000000	          0.00041556	          0.00000000	          0.00000000	          0.00000000	          0.00000000	          0.00000000	          0.00000000	          0.00000000	         -1.36521312	          0.00000000	          0.00000000	          0.00000000	          0.00000000	
          0.80095468	         80.48160396	        881.90032007	         20.66523379	          0.00981397	          0.00000000	          0.00071543	          0.00000000	          0.00000000	          0.00000000	          0.00000000	          0.00000000	          0.00000000	          0.00000000	         -2.61778762	          0.00000000	          0.00000000	          0.00000000	          0.00000000	
          0.81764123	         84.18135444	        867.92739786	         20.89262308	          0.02685599	          0.00000000	          0.00183276	        -36.22537398	         33.84277125	          8.93992555	          7.92715812	          0.00000000	         -1.31915441	          0.00000000	         -7.45321893	          0.00000000	          0.00000000	          7.46556559	          0.00000000	
